<mxfile host="app.diagrams.net" modified="2022-01-25T18:33:37.107Z" agent="5.0 (Windows NT 10.0; Win64; x64) AppleWebKit/537.36 (KHTML, like Gecko) Chrome/97.0.4692.99 Safari/537.36" etag="PuW3BM9r87BE_GUI-Tgr" version="16.4.6" type="github">
  <diagram name="Page-1" id="42789a77-a242-8287-6e28-9cd8cfd52e62">
    <mxGraphModel dx="1278" dy="547" grid="1" gridSize="10" guides="1" tooltips="1" connect="1" arrows="1" fold="1" page="1" pageScale="1" pageWidth="1100" pageHeight="850" background="none" math="0" shadow="0">
      <root>
        <mxCell id="0" />
        <mxCell id="1" parent="0" />
        <mxCell id="1ea317790d2ca983-1" value="Restaurant" style="ellipse;whiteSpace=wrap;html=1;rounded=0;shadow=1;comic=0;labelBackgroundColor=none;strokeWidth=1;fontFamily=Verdana;fontSize=12;align=center;" parent="1" vertex="1">
          <mxGeometry x="620" y="70" width="90" height="60" as="geometry" />
        </mxCell>
        <mxCell id="MwhxylCimsrul33ufEP8-1" value="Garden" style="ellipse;whiteSpace=wrap;html=1;rounded=0;shadow=1;comic=0;labelBackgroundColor=none;strokeWidth=1;fontFamily=Verdana;fontSize=12;align=center;" vertex="1" parent="1">
          <mxGeometry x="810" y="170" width="90" height="60" as="geometry" />
        </mxCell>
        <mxCell id="MwhxylCimsrul33ufEP8-2" value="Gym" style="ellipse;whiteSpace=wrap;html=1;rounded=0;shadow=1;comic=0;labelBackgroundColor=none;strokeWidth=1;fontFamily=Verdana;fontSize=12;align=center;" vertex="1" parent="1">
          <mxGeometry x="850" y="290" width="90" height="60" as="geometry" />
        </mxCell>
        <mxCell id="MwhxylCimsrul33ufEP8-3" value="Main road" style="ellipse;whiteSpace=wrap;html=1;rounded=0;shadow=1;comic=0;labelBackgroundColor=none;strokeWidth=1;fontFamily=Verdana;fontSize=12;align=center;" vertex="1" parent="1">
          <mxGeometry x="490" y="500" width="90" height="60" as="geometry" />
        </mxCell>
        <mxCell id="MwhxylCimsrul33ufEP8-4" value="Main cycle path" style="ellipse;whiteSpace=wrap;html=1;rounded=0;shadow=1;comic=0;labelBackgroundColor=none;strokeWidth=1;fontFamily=Verdana;fontSize=12;align=center;" vertex="1" parent="1">
          <mxGeometry x="130" y="290" width="90" height="60" as="geometry" />
        </mxCell>
        <mxCell id="MwhxylCimsrul33ufEP8-5" value="community center" style="ellipse;whiteSpace=wrap;html=1;rounded=0;shadow=1;comic=0;labelBackgroundColor=none;strokeWidth=1;fontFamily=Verdana;fontSize=12;align=center;" vertex="1" parent="1">
          <mxGeometry x="440" y="220" width="90" height="60" as="geometry" />
        </mxCell>
        <mxCell id="MwhxylCimsrul33ufEP8-9" value="Football field" style="ellipse;whiteSpace=wrap;html=1;rounded=0;shadow=1;comic=0;labelBackgroundColor=none;strokeWidth=1;fontFamily=Verdana;fontSize=12;align=center;" vertex="1" parent="1">
          <mxGeometry x="380" y="90" width="90" height="60" as="geometry" />
        </mxCell>
        <mxCell id="MwhxylCimsrul33ufEP8-10" value="communal garden" style="ellipse;whiteSpace=wrap;html=1;rounded=0;shadow=1;comic=0;labelBackgroundColor=none;strokeWidth=1;fontFamily=Verdana;fontSize=12;align=center;" vertex="1" parent="1">
          <mxGeometry x="640" y="220" width="90" height="60" as="geometry" />
        </mxCell>
        <mxCell id="MwhxylCimsrul33ufEP8-11" value="restaurant" style="ellipse;whiteSpace=wrap;html=1;rounded=0;shadow=1;comic=0;labelBackgroundColor=none;strokeWidth=1;fontFamily=Verdana;fontSize=12;align=center;" vertex="1" parent="1">
          <mxGeometry x="540" y="190" width="90" height="60" as="geometry" />
        </mxCell>
        <mxCell id="MwhxylCimsrul33ufEP8-12" value="Gym" style="ellipse;whiteSpace=wrap;html=1;rounded=0;shadow=1;comic=0;labelBackgroundColor=none;strokeWidth=1;fontFamily=Verdana;fontSize=12;align=center;" vertex="1" parent="1">
          <mxGeometry x="610" y="320" width="90" height="60" as="geometry" />
        </mxCell>
        <mxCell id="MwhxylCimsrul33ufEP8-13" value="shops" style="ellipse;whiteSpace=wrap;html=1;rounded=0;shadow=1;comic=0;labelBackgroundColor=none;strokeWidth=1;fontFamily=Verdana;fontSize=12;align=center;" vertex="1" parent="1">
          <mxGeometry x="480" y="320" width="90" height="60" as="geometry" />
        </mxCell>
        <mxCell id="MwhxylCimsrul33ufEP8-14" value="lobby" style="ellipse;whiteSpace=wrap;html=1;rounded=0;shadow=1;comic=0;labelBackgroundColor=none;strokeWidth=1;fontFamily=Verdana;fontSize=12;align=center;" vertex="1" parent="1">
          <mxGeometry x="333" y="266" width="90" height="60" as="geometry" />
        </mxCell>
        <mxCell id="MwhxylCimsrul33ufEP8-15" value="assisted living" style="ellipse;whiteSpace=wrap;html=1;rounded=0;shadow=1;comic=0;labelBackgroundColor=none;strokeWidth=1;fontFamily=Verdana;fontSize=12;align=center;" vertex="1" parent="1">
          <mxGeometry x="420" y="380" width="90" height="60" as="geometry" />
        </mxCell>
      </root>
    </mxGraphModel>
  </diagram>
</mxfile>
